<?xml version="1.0" encoding="iso-8859-1"?>
<!-- Generator: Adobe Illustrator 16.0.0, SVG Export Plug-In . SVG Version: 6.00 Build 0)  -->
<!DOCTYPE svg PUBLIC "-//W3C//DTD SVG 1.1//EN" "http://www.w3.org/Graphics/SVG/1.1/DTD/svg11.dtd">
<svg xmlns="http://www.w3.org/2000/svg" xmlns:xlink="http://www.w3.org/1999/xlink" version="1.1" id="Capa_1" x="0px" y="0px" width="512px" height="512px" viewBox="0 0 324.86 324.86" style="enable-background:new 0 0 324.86 324.86;" xml:space="preserve">
<g>
	<g>
		<path d="M247.169,100.416c15.727,20.512,25.179,46.066,25.179,73.847c0,67.133-54.62,121.753-121.76,121.753    S28.826,241.396,28.826,174.263c0-67.134,54.623-121.753,121.762-121.753c27.778,0,53.328,9.46,73.841,25.184l20.591-20.584    c-25.856-20.864-58.691-33.441-94.426-33.441C67.551,23.668,0,91.222,0,174.257c0,83.034,67.551,150.588,150.594,150.588    c83.041,0,150.595-67.554,150.595-150.588c0-35.744-12.574-68.56-33.441-94.411L247.169,100.416z" fill="#FFFFFF"/>
		<path d="M315.251,28.166h-18.566V9.632c0-5.32-4.312-9.616-9.62-9.616c-5.29,0-9.607,4.296-9.607,9.616v24.167l-9.013,9.007    v-5.443c0-5.317-4.306-9.617-9.614-9.617c-5.296,0-9.607,4.3-9.607,9.617v24.671L143.788,167.465    c-3.753,3.759-3.753,9.842,0,13.595c1.879,1.88,4.338,2.811,6.794,2.811c2.453,0,4.918-0.931,6.794-2.811l105.94-105.937h23.7    c5.29,0,9.608-4.299,9.608-9.616c0-5.306-4.312-9.611-9.608-9.611h-4.479l8.509-8.503h24.205c5.297,0,9.608-4.299,9.608-9.62    C324.866,32.462,320.554,28.166,315.251,28.166z" fill="#FFFFFF"/>
		<path d="M232.32,115.283l-20.741,20.726l-15.366,15.36L172.98,174.61c-0.186,12.196-10.139,22.074-22.392,22.074    c-12.379,0-22.425-10.059-22.425-22.422c0-12.25,9.875-22.203,22.092-22.389l23.218-23.236l15.372-15.372l20.734-20.716    c-16.615-12.034-36.96-19.215-58.991-19.215c-55.649,0-100.935,45.276-100.935,100.929s45.285,100.929,100.935,100.929    c55.646,0,100.935-45.276,100.935-100.929C251.523,152.225,244.341,131.89,232.32,115.283z" fill="#FFFFFF"/>
	</g>
</g>
<g>
</g>
<g>
</g>
<g>
</g>
<g>
</g>
<g>
</g>
<g>
</g>
<g>
</g>
<g>
</g>
<g>
</g>
<g>
</g>
<g>
</g>
<g>
</g>
<g>
</g>
<g>
</g>
<g>
</g>
</svg>
