<svg version="1.1" viewBox="0 0 96 96" xmlns="http://www.w3.org/2000/svg" xmlns:xlink="http://www.w3.org/1999/xlink" id="Icons_Checklist_LTR" overflow="hidden"><g><path d=" M 23 14 L 73 14 L 73 82 L 23 82 L 23 14 Z M 17 88 L 79 88 L 79 8 L 17 8 L 17 88 Z" stroke="none" stroke-width="1" stroke-dasharray="" stroke-dashoffset="1" fill="#FFFFFF" fill-opacity="1"/><rect x="50" y="23" width="17" height="4" stroke="none" stroke-width="1" stroke-dasharray="" stroke-dashoffset="1" fill="#FFFFFF" fill-opacity="1"/><rect x="50" y="39" width="17" height="4" stroke="none" stroke-width="1" stroke-dasharray="" stroke-dashoffset="1" fill="#FFFFFF" fill-opacity="1"/><rect x="50" y="71" width="17" height="4" stroke="none" stroke-width="1" stroke-dasharray="" stroke-dashoffset="1" fill="#FFFFFF" fill-opacity="1"/><rect x="50" y="55" width="17" height="4" stroke="none" stroke-width="1" stroke-dasharray="" stroke-dashoffset="1" fill="#FFFFFF" fill-opacity="1"/><path d=" M 43.8 20.8 L 41 18 L 34.4 24.6 L 31.8 22 L 29 24.8 L 34.4 30.2 Z" stroke="none" stroke-width="1" stroke-dasharray="" stroke-dashoffset="1" fill="#FFFFFF" fill-opacity="1"/><path d=" M 43.8 36.8 L 41 34 L 34.4 40.6 L 31.8 38 L 29 40.8 L 34.4 46.2 Z" stroke="none" stroke-width="1" stroke-dasharray="" stroke-dashoffset="1" fill="#FFFFFF" fill-opacity="1"/><path d=" M 43.8 52.8 L 41 50 L 34.4 56.6 L 31.8 54 L 29 56.8 L 34.4 62.2 Z" stroke="none" stroke-width="1" stroke-dasharray="" stroke-dashoffset="1" fill="#FFFFFF" fill-opacity="1"/><path d=" M 43.8 68.6 L 41 65.8 L 34.4 72.4 L 31.8 69.8 L 29 72.6 L 34.4 78 Z" stroke="none" stroke-width="1" stroke-dasharray="" stroke-dashoffset="1" fill="#FFFFFF" fill-opacity="1"/></g></svg>