<svg version="1.1" viewBox="0 0 96 96" xmlns="http://www.w3.org/2000/svg" xmlns:xlink="http://www.w3.org/1999/xlink" id="Icons_MagnifyingGlass" overflow="hidden"><path d=" M 85.5 75.6 L 73 63.1 C 71.3 61.4 69 60.8 66.8 61.2 L 62.4 56.8 C 66.3 51.8 68.6 45.4 68.6 38.6 C 68.6 22.1 55.1 8.6 38.6 8.6 C 22.1 8.6 8.6 22.1 8.6 38.6 C 8.6 55.1 22.1 68.6 38.6 68.6 C 45.4 68.6 51.7 66.3 56.8 62.4 L 61.2 66.8 C 60.8 69 61.4 71.3 63.1 73 L 75.6 85.5 C 77 86.9 78.8 87.6 80.6 87.6 C 82.4 87.6 84.2 86.9 85.6 85.5 C 88.2 82.7 88.2 78.3 85.5 75.6 Z M 38.5 62.5 C 25.3 62.5 14.5 51.7 14.5 38.5 C 14.5 25.3 25.3 14.5 38.5 14.5 C 51.7 14.5 62.5 25.3 62.5 38.5 C 62.5 51.7 51.7 62.5 38.5 62.5 Z" stroke="none" stroke-width="1" stroke-dasharray="" stroke-dashoffset="1" fill="#FFFFFF" fill-opacity="1"/></svg>